HIERARCHY
ROOT Hips
{
 OFFSET 0.000000 0.000000 0.000000
 CHANNELS 6 Xposition Yposition Zposition Yrotation Xrotation Zrotation
 JOINT Chest
 {
  OFFSET 0.000000 9.585900 0.002600
  CHANNELS 3 Yrotation Xrotation Zrotation
  JOINT Chest2
  {
   OFFSET 0.000000 9.601200 -0.005300
   CHANNELS 3 Yrotation Xrotation Zrotation
   JOINT Chest3
   {
    OFFSET 0.000000 9.561800 0.000000
    CHANNELS 3 Yrotation Xrotation Zrotation
    JOINT Chest4
    {
     OFFSET 0.000000 9.552100 0.000000
     CHANNELS 3 Yrotation Xrotation Zrotation
     JOINT Neck
     {
      OFFSET 0.000000 14.453000 0.000000
      CHANNELS 3 Yrotation Xrotation Zrotation
      JOINT Head
      {
       OFFSET 0.000000 8.936500 -0.011300
       CHANNELS 3 Yrotation Xrotation Zrotation
       End Site
       {
        OFFSET 0.000000 17.073600 -0.006000
       }
      }
     }
     JOINT RightCollar
     {
      OFFSET -2.921100 9.558500 0.000000
      CHANNELS 3 Yrotation Xrotation Zrotation
      JOINT RightShoulder
      {
       OFFSET -13.519700 0.000000 0.000000
       CHANNELS 3 Yrotation Xrotation Zrotation
       JOINT RightElbow
       {
        OFFSET 0.000000 -29.696600 0.000000
        CHANNELS 3 Yrotation Xrotation Zrotation
        JOINT RightWrist
        {
         OFFSET 0.000000 -24.004700 0.000000
         CHANNELS 3 Yrotation Xrotation Zrotation
         End Site
         {
          OFFSET 0.000000 -17.728500 0.000000
         }
        }
       }
      }
     }
     JOINT LeftCollar
     {
      OFFSET 2.921100 9.558500 0.000000
      CHANNELS 3 Yrotation Xrotation Zrotation
      JOINT LeftShoulder
      {
       OFFSET 13.519700 0.000000 0.000000
       CHANNELS 3 Yrotation Xrotation Zrotation
       JOINT LeftElbow
       {
        OFFSET 0.000000 -29.696600 0.000000
        CHANNELS 3 Yrotation Xrotation Zrotation
        JOINT LeftWrist
        {
         OFFSET 0.000000 -24.004700 0.000000
         CHANNELS 3 Yrotation Xrotation Zrotation
         End Site
         {
          OFFSET 0.000000 -17.728500 0.000000
         }
        }
       }
      }
     }
    }
   }
  }
 }
 JOINT RightHip
 {
  OFFSET -7.771700 -0.012900 -0.001300
  CHANNELS 3 Yrotation Xrotation Zrotation
  JOINT RightKnee
  {
   OFFSET 0.000000 -40.869800 0.001200
   CHANNELS 3 Yrotation Xrotation Zrotation
   JOINT RightAnkle
   {
    OFFSET 0.000000 -39.717900 0.002100
    CHANNELS 3 Yrotation Xrotation Zrotation
    JOINT RightToe
    {
     OFFSET 0.000000 -4.965400 11.033500
     CHANNELS 3 Yrotation Xrotation Zrotation
     End Site
     {
      OFFSET 0.000000 -1.423100 5.872300
     }
    }
   }
  }
 }
 JOINT LeftHip
 {
  OFFSET 7.771700 -0.012900 -0.001300
  CHANNELS 3 Yrotation Xrotation Zrotation
  JOINT LeftKnee
  {
   OFFSET 0.000000 -40.869800 0.001200
   CHANNELS 3 Yrotation Xrotation Zrotation
   JOINT LeftAnkle
   {
    OFFSET 0.000000 -39.717900 0.002100
    CHANNELS 3 Yrotation Xrotation Zrotation
    JOINT LeftToe
    {
     OFFSET 0.000000 -4.965400 11.033500
     CHANNELS 3 Yrotation Xrotation Zrotation
     End Site
     {
      OFFSET 0.000000 -1.423100 5.872300
     }
    }
   }
  }
 }
}
MOTION
Frames: 11
Frame Time: 0.008333
0.000000 85.388000 0.000000 0.000000 -5.767877 0.000000 0.000000 11.653817 0.000000 0.000000 -5.885947 0.000000 0.000000 -0.000000 0.000000 0.000000 -0.000000 0.000000 0.000000 12.528835 0.000000 0.000000 0.711642 0.000000 0.000000 -0.000000 0.000000 0.000000 0.000000 -90.000000 0.000000 -2.309062 0.000000 0.000000 2.309062 0.000000 0.000000 -0.000000 0.000000 0.000000 -0.000000 90.000000 0.000000 -2.309062 0.000000 0.000000 2.309062 0.000000 0.000000 8.520406 0.000000 0.000000 1.905762 0.000000 -0.000000 -4.658285 0.000000 0.000000 -0.000000 0.000000 0.000000 8.520406 0.000000 0.000000 1.905762 0.000000 -0.000000 -4.658285 0.000000 0.000000 -0.000000 0.000000
-12.926139 57.397973 68.547462 172.755020 -41.953966 -0.088552 2.909754 30.161553 7.116814 0.277804 6.075729 0.983029 0.508232 9.433715 1.554247 1.794199 24.089984 4.285841 0.129465 10.878465 -10.062802 4.639662 -14.864837 -19.401205 4.583045 2.576243 -3.261748 21.807046 -38.054304 -17.101122 -1.242617 -64.904166 15.666979 21.214086 4.652439 -38.005376 -11.849734 -0.313834 -6.216251 -3.314410 -31.645576 -4.387504 -7.427189 -71.755596 -14.825154 15.273542 -3.126955 15.826780 10.347709 -31.395374 0.709236 -10.275525 65.755455 -13.580376 4.681583 13.895273 10.652616 -0.422191 -7.387634 0.453337 -4.258889 -34.627801 -0.198394 28.434567 55.914489 30.794720 -14.939302 35.906416 -2.439331 0.259499 -16.389486 -6.538421
-12.924048 57.397273 68.547907 172.748514 -41.945962 -0.095985 2.896996 30.161849 7.110325 0.276872 6.076037 0.982415 0.502292 9.431999 1.551232 1.794680 24.093263 4.284139 0.126978 10.871681 -10.067234 4.634603 -14.877620 -19.408716 4.552753 2.572452 -3.260640 21.844064 -38.061056 -17.106466 -1.247592 -64.901292 15.673326 21.214745 4.640270 -38.005401 -11.864534 -0.318181 -6.213719 -3.296290 -31.643341 -4.386309 -7.387608 -71.769443 -14.871191 15.273439 -3.120644 15.810545 10.330772 -31.404464 0.712802 -10.275330 65.749612 -13.560523 4.678428 13.903534 10.623487 -0.427965 -7.387210 0.455584 -4.287094 -34.641473 -0.186016 28.461055 55.918668 30.823485 -14.925735 35.912166 -2.436195 0.245961 -16.379385 -6.549538
-12.922448 57.396915 68.547846 172.744515 -41.940815 -0.100928 2.883520 30.165389 7.101050 0.281145 6.074911 0.984544 0.492010 9.433644 1.548649 1.794050 24.094452 4.280247 0.124644 10.865078 -10.070786 4.628800 -14.890079 -19.416182 4.563915 2.566686 -3.264569 21.849919 -38.062781 -17.106857 -1.253302 -64.899739 15.675688 21.216507 4.634021 -38.002286 -11.870439 -0.328106 -6.212797 -3.312402 -31.622258 -4.372482 -7.346565 -71.795746 -14.901691 15.265501 -3.123910 15.829438 10.324739 -31.410137 0.715788 -10.293029 65.744834 -13.560910 4.669053 13.909929 10.600759 -0.417156 -7.386722 0.457475 -4.311226 -34.651140 -0.182330 28.487861 55.919999 30.855799 -14.913115 35.914873 -2.434363 0.232111 -16.366044 -6.560078
-12.917760 57.396694 68.548039 172.728638 -41.936750 -0.115543 2.899945 30.164319 7.121004 0.285882 6.073640 0.986921 0.475830 9.440010 1.544452 1.789201 24.093693 4.273665 0.123138 10.859185 -10.073334 4.612148 -14.906220 -19.419848 4.574723 2.559841 -3.266362 21.830943 -38.069215 -17.097015 -1.256372 -64.898017 15.695407 21.212395 4.618767 -38.016813 -11.877182 -0.334529 -6.207824 -3.299695 -31.612987 -4.371101 -7.316757 -71.812442 -14.945792 15.264670 -3.127885 15.816948 10.296520 -31.417633 0.737100 -10.268770 65.740349 -13.526543 4.684586 13.916749 10.587862 -0.428470 -7.388861 0.448214 -4.359619 -34.660165 -0.170847 28.502655 55.930228 30.916339 -14.912288 35.900971 -2.505889 0.238516 -16.350405 -6.559817
-12.914430 57.396051 68.548562 172.718565 -41.929247 -0.125569 2.906480 30.159917 7.129654 0.275556 6.076575 0.981337 0.457416 9.445202 1.535411 1.808309 24.089945 4.276191 0.122111 10.853914 -10.075667 4.623151 -14.912794 -19.423027 4.570802 2.554478 -3.262746 21.831636 -38.074800 -17.094342 -1.267209 -64.894903 15.707175 21.197836 4.588431 -38.050025 -11.879677 -0.340366 -6.200412 -3.280321 -31.609602 -4.375276 -7.301517 -71.820597 -14.968282 15.261902 -3.130619 15.827697 10.272430 -31.425735 0.748148 -10.251095 65.732783 -13.495488 4.692156 13.924600 10.564340 -0.427833 -7.389212 0.446021 -4.379625 -34.670183 -0.157411 28.499320 55.936972 30.934535 -14.911329 35.899010 -2.538606 0.243335 -16.347925 -6.558717
-12.911829 57.395669 68.548729 172.703077 -41.925045 -0.127196 2.901275 30.163426 7.120318 0.260156 6.080038 0.973078 0.491804 9.438066 1.548293 1.790342 24.093791 4.269833 0.121652 10.849538 -10.077802 4.605079 -14.926600 -19.429943 4.545656 2.548721 -3.252626 21.831607 -38.084648 -17.089425 -1.276849 -64.892306 15.714054 21.196569 4.556260 -38.030027 -11.886471 -0.346828 -6.195049 -3.259137 -31.606980 -4.376842 -7.263487 -71.831063 -15.035534 15.255290 -3.138880 15.846000 10.243262 -31.427617 0.751851 -10.188794 65.727226 -13.430755 4.716381 13.921523 10.558106 -0.449991 -7.384108 0.433518 -4.381636 -34.675245 -0.146262 28.473170 55.948213 30.932542 -14.929626 35.891810 -2.590326 0.264786 -16.326836 -6.547499
-12.909030 57.394720 68.549616 172.676555 -41.917010 -0.123713 2.906431 30.160807 7.115441 0.276132 6.077332 0.980114 0.475921 9.441459 1.541572 1.789256 24.095791 4.268417 0.121778 10.845460 -10.079951 4.606875 -14.933868 -19.434686 4.561537 2.544571 -3.253991 21.832942 -38.085795 -17.090424 -1.298026 -64.887326 15.704807 21.188112 4.523786 -38.031162 -11.910671 -0.351344 -6.195001 -3.236724 -31.607444 -4.365484 -7.207840 -71.843420 -15.104940 15.252215 -3.146215 15.834077 10.239649 -31.435850 0.764629 -10.176596 65.719251 -13.408905 4.709659 13.922903 10.535990 -0.453121 -7.376221 0.435496 -4.389091 -34.686835 -0.134689 28.491310 55.952175 30.956995 -14.906194 35.896573 -2.578898 0.247245 -16.315619 -6.560690
-12.907598 57.394370 68.549633 172.667065 -41.916465 -0.124381 2.889979 30.167828 7.097200 0.276434 6.077665 0.979909 0.457797 9.447334 1.534490 1.821028 24.091416 4.274187 0.116658 10.842133 -10.081303 4.602342 -14.942334 -19.439127 4.542554 2.537522 -3.247479 21.841840 -38.095013 -17.092206 -1.298585 -64.879839 15.724587 21.169512 4.499075 -38.056464 -11.916699 -0.356816 -6.194034 -3.228971 -31.606446 -4.363928 -7.171648 -71.851795 -15.151763 15.246028 -3.151258 15.824077 10.227972 -31.435194 0.770274 -10.160742 65.713689 -13.385316 4.701777 13.927938 10.516568 -0.448590 -7.374497 0.436329 -4.406969 -34.691424 -0.132051 28.511948 55.956597 30.982357 -14.890365 35.894169 -2.570592 0.229740 -16.299182 -6.573649
-12.906548 57.393429 68.550227 172.667215 -41.912985 -0.132297 2.856011 30.171041 7.071372 0.276554 6.081047 0.979570 0.476655 9.446727 1.540528 1.835268 24.088577 4.276169 0.102325 10.842186 -10.080693 4.600812 -14.950203 -19.442682 4.524925 2.534294 -3.236378 21.819651 -38.100539 -17.095419 -1.309649 -64.878854 15.772070 21.151806 4.475118 -38.077590 -11.934497 -0.359358 -6.189875 -3.215549 -31.603764 -4.363768 -7.137955 -71.859544 -15.192568 15.242809 -3.152240 15.811833 10.216808 -31.437823 0.777402 -10.151396 65.710117 -13.372030 4.695790 13.928272 10.511355 -0.445204 -7.371277 0.432131 -4.433626 -34.699048 -0.128324 28.516537 55.961154 31.004683 -14.907254 35.891741 -2.607380 0.235117 -16.282326 -6.574317
-12.905814 57.392386 68.550788 172.655642 -41.911411 -0.134108 2.852362 30.173442 7.065626 0.276843 6.082419 0.979429 0.480914 9.447838 1.541926 1.829574 24.089711 4.274310 0.102820 10.840042 -10.082892 4.599428 -14.957684 -19.444973 4.501573 2.528135 -3.225785 21.844829 -38.100653 -17.109390 -1.340177 -64.877450 15.799133 21.141793 4.451887 -38.079611 -11.938038 -0.364371 -6.187324 -3.222505 -31.596471 -4.355586 -7.115400 -71.871188 -15.193704 15.248340 -3.151455 15.792668 10.214131 -31.439409 0.786164 -10.137912 65.705648 -13.354487 4.689127 13.930162 10.506963 -0.443886 -7.367996 0.427979 -4.452195 -34.706190 -0.121019 28.519121 55.971701 31.018477 -14.904910 35.891238 -2.622120 0.228302 -16.268545 -6.579976
